<?xml version="1.0" encoding="UTF-8"?>
<svg width="842px" height="401px" viewBox="0 0 842 401" version="1.1" xmlns="http://www.w3.org/2000/svg" xmlns:xlink="http://www.w3.org/1999/xlink">
    <!-- Generator: Sketch 53.2 (72643) - https://sketchapp.com -->
    <title>CONECTA light</title>
    <desc>Created with Sketch.</desc>
    <g id="CONECTA-light" stroke="none" stroke-width="1" fill="none" fill-rule="evenodd">
        <path d="M716.2563,310.4505 L731.9883,276.0345 L747.0013,310.4505 L716.2563,310.4505 Z M735.1073,248.1735 L729.2903,248.1735 L682.1673,349.3905 L698.6213,349.3905 L709.8973,324.8075 L753.2293,324.8075 L763.8493,349.3905 L780.5663,349.3905 L735.1073,248.1735 Z" id="a" fill="#451956"></path>
        <polygon id="t" fill="#451956" points="688.8256 248.1732 611.0326 248.1732 611.0326 262.5292 642.3246 262.5292 642.3246 349.3912 657.5986 349.3912 657.5986 262.5292 688.8256 262.5292"></polygon>
        <path d="M585.726,283.9212 C587.533,288.4482 588.436,293.4122 588.436,298.8152 C588.436,304.1652 587.516,309.1072 585.678,313.6432 L601.831,313.6432 C603.151,309.0192 603.842,304.1292 603.842,298.9452 C603.842,293.6582 603.133,288.6542 601.748,283.9212 L585.726,283.9212 Z" id="gap2" fill="#B0DBCA"></path>
        <path d="M577.4887,325.9544 C570.1897,333.2974 561.2307,336.9684 550.6107,336.9684 C540.8207,336.9684 532.1897,333.3624 524.7177,326.1514 C517.1987,318.9404 513.4407,309.7414 513.4407,298.5534 C513.4407,287.8894 517.0677,278.9314 524.3237,271.6754 C531.5777,264.3334 540.4707,260.6614 551.0047,260.6614 C561.5797,260.6614 570.4527,264.3334 577.6197,271.6754 C581.2217,275.3204 583.9237,279.4034 585.7257,283.9214 L601.7487,283.9214 C599.3467,275.7064 594.8767,268.3194 588.3047,261.7754 C577.9907,251.4634 565.6237,246.3054 551.2017,246.3054 C536.6027,246.3054 524.1047,251.4184 513.7037,261.6444 C503.2587,271.8714 498.0357,284.1094 498.0357,298.3554 C498.0357,314.5704 503.7607,327.6814 515.2117,337.6884 C525.6127,346.7354 537.3467,351.2594 550.4147,351.2594 C565.1847,351.2594 577.7947,346.1684 588.2397,335.9844 C594.9357,329.4574 599.4467,322.0004 601.8317,313.6424 L585.6777,313.6424 C583.8537,318.1474 581.1257,322.2534 577.4887,325.9544" id="c2" fill="#451956"></path>
        <polygon id="e" fill="#451956" points="416.9409 349.3909 488.8349 349.3909 488.8349 335.0349 432.2149 335.0349 432.2149 306.5539 463.5939 306.5539 463.5939 292.1979 432.2149 292.1979 432.2149 262.5299 488.8349 262.5299 488.8349 248.1729 416.9409 248.1729"></polygon>
        <polygon id="n" fill="#451956" points="375.2461 248.6927 375.2461 319.0337 308.0101 248.6927 301.4311 248.6927 301.4311 348.8717 316.7051 348.8717 316.7051 279.0447 383.6211 348.8717 390.5201 348.8717 390.5201 248.6927 383.1481 248.6927"></polygon>
        <path d="M258.5429,325.9544 C251.2439,333.2974 242.2859,336.9684 231.6659,336.9684 C221.8759,336.9684 213.2449,333.3624 205.7709,326.1514 C198.2529,318.9404 194.4959,309.7414 194.4959,298.5534 C194.4959,287.8894 198.1229,278.9314 205.3779,271.6754 C212.6319,264.3324 221.5249,260.6614 232.0589,260.6614 C242.6339,260.6614 251.5059,264.3324 258.6739,271.6754 C265.8849,278.9744 269.4909,288.0204 269.4909,298.8144 C269.4909,309.4784 265.8409,318.5254 258.5429,325.9544 M232.2549,246.3054 C217.6579,246.3054 205.1589,251.4184 194.7579,261.6444 C184.3129,271.8714 179.0899,284.1094 179.0899,298.3554 C179.0899,314.5704 184.8139,327.6814 196.2659,337.6884 C206.6669,346.7354 218.4009,351.2594 231.4689,351.2594 C246.2399,351.2594 258.8489,346.1684 269.2939,335.9844 C279.6949,325.8464 284.8969,313.4994 284.8969,298.9454 C284.8969,284.4804 279.7169,272.0904 269.3599,261.7754 C259.0449,251.4634 246.6779,246.3054 232.2549,246.3054" id="o" fill="#451956"></path>
        <path d="M149.1552,283.9212 C150.9612,288.4482 151.8652,293.4122 151.8652,298.8152 C151.8652,304.1652 150.9442,309.1072 149.1072,313.6432 L165.2602,313.6432 C166.5792,309.0192 167.2702,304.1292 167.2702,298.9452 C167.2702,293.6582 166.5612,288.6542 165.1772,283.9212 L149.1552,283.9212 Z" id="gap1" fill="#B0DBCA"></path>
        <path d="M140.9174,325.9544 C133.6184,333.2974 124.6594,336.9684 114.0394,336.9684 C104.2504,336.9684 95.6184,333.3624 88.1454,326.1514 C80.6274,318.9404 76.8704,309.7414 76.8704,298.5534 C76.8704,287.8894 80.4964,278.9314 87.7514,271.6754 C95.0064,264.3334 103.8994,260.6614 114.4334,260.6614 C125.0084,260.6614 133.8804,264.3334 141.0484,271.6754 C144.6504,275.3204 147.3524,279.4034 149.1554,283.9214 L165.1774,283.9214 C162.7754,275.7064 158.3054,268.3194 151.7334,261.7754 C141.4194,251.4634 129.0514,246.3054 114.6294,246.3054 C100.0324,246.3054 87.5334,251.4184 77.1324,261.6444 C66.6864,271.8714 61.4644,284.1094 61.4644,298.3554 C61.4644,314.5704 67.1884,327.6814 78.6394,337.6884 C89.0414,346.7354 100.7754,351.2594 113.8434,351.2594 C128.6144,351.2594 141.2234,346.1684 151.6684,335.9844 C158.3654,329.4574 162.8754,322.0004 165.2604,313.6424 L149.1074,313.6424 C147.2824,318.1474 144.5544,322.2534 140.9174,325.9544" id="c1" fill="#451956"></path>
        <g id="iso1" transform="translate(440.264325, 43.978200)">
            <path d="M67.3883753,94.7718 L67.3863753,35.022 C67.4093753,33.429 51.9093753,34.758 51.9093753,34.914 L51.9103753,94.7718 C51.9103753,94.9278 67.3883753,94.9278 67.3883753,94.7718 Z" id="iso-2" fill="#96CEB5"></path>
            <path d="M51.9099179,95.3893158 C51.8938577,95.1855913 51.8856753,94.9796512 51.8856753,94.7718 C51.8856753,90.4915932 55.3554685,87.0218 59.6356753,87.0218 C63.9051686,87.0218 67.3683001,90.4742448 67.3856101,94.7396746 C67.3868551,94.789065 67.3874822,94.8387734 67.3874834,94.8888 C67.3876816,103.052635 67.3879789,110.556701 67.3883753,117.401 C67.3883753,117.557 67.4353753,126.851 72.9853753,132.41 C75.9593753,135.389 80.0873753,136.838 85.6033753,136.838 C91.1193753,136.838 95.2463753,135.389 98.2203753,132.41 C103.769375,126.852 103.817375,117.557 103.817375,117.463 C103.695937,118.673745 103.696128,117.526678 103.817949,114.0218 C103.885675,112.073252 119.296601,112.073252 119.296579,114.0218 C119.296543,117.056871 119.296475,119.106605 119.296375,120.171 C119.296375,120.954 119.145375,121.695 118.929375,122.407 C118.191375,127.812 115.970375,136.454 109.302375,143.216 C103.348375,149.254 95.3743753,152.316 85.6033753,152.316 C75.8303753,152.316 67.8583753,149.254 61.9043753,143.216 C55.2593753,136.478 53.0313753,127.874 52.2853753,122.433 C52.0643753,121.713 51.9103753,120.964 51.9103753,120.171 C51.9101736,112.233126 51.9100211,103.972565 51.9099179,95.3893158 Z" id="iso-2" fill="#C7A7B8"></path>
            <path d="M67.3839769,51.6079135 C67.3851073,51.662406 67.3856753,51.7170367 67.3856753,51.7718 C67.3856753,56.0520068 63.9158821,59.5218 59.6356753,59.5218 C55.3554685,59.5218 51.8856753,56.0520068 51.8856753,51.7718 C51.8856753,51.5654727 51.8937382,51.3610286 51.9095659,51.1587655 C51.9095227,47.4762037 51.9094592,42.0612818 51.9093753,34.914 C51.9093753,34.758 51.8613753,25.463 46.3113753,19.905 C43.3373753,16.926 39.2113753,15.478 33.6953753,15.478 C28.1433753,15.478 23.9953753,16.947 21.0163753,19.967 C15.5963753,25.464 15.4783753,34.715 15.4793753,34.805 L15.4803753,115.637 C15.4803753,119.911 12.0153753,123.377 7.74137532,123.377 C3.46737532,123.377 0.00137532263,119.911 0.00137532263,115.637 L0.00137532263,34.914 C-0.0196246774,33.429 0.0723753226,19.163 9.99637532,9.099 C15.9493753,3.062 23.9233753,-4.97379915e-14 33.6953753,-4.97379915e-14 C43.4673753,-4.97379915e-14 51.4403753,3.062 57.3933753,9.099 C67.3183753,19.163 67.4093753,33.429 67.3863753,35.022 C67.386553,42.3448421 67.3866863,47.8361274 67.3867752,51.495856 C67.3867761,51.5335017 67.3858384,51.5708542 67.3839769,51.6079135 Z" id="Combined-Shape" fill="#FDD300"></path>
        </g>
        <path d="M767.1967,80.6552 C767.1967,76.3812 763.7317,72.9172 759.4587,72.9172 C755.1837,72.9172 751.7187,76.3812 751.7187,80.6552 L751.7187,161.4412 C751.7197,161.5352 751.6717,170.8292 746.1217,176.3882 C743.1477,179.3672 739.0207,180.8162 733.5047,180.8162 C727.9877,180.8162 723.8607,179.3672 720.8867,176.3882 C715.3387,170.8292 715.2897,161.5352 715.2897,161.3792 C715.347099,157.744803 715.347006,155.951737 715.28942,156 C709,161.2712 699.80471,156.173932 699.8127,153.5 C699.8127,153.5 699.8127,156.0904 699.8127,161.2712 C699.8047,161.7972 699.8187,163.7272 700.1877,166.4142 C700.9327,171.8552 703.1627,180.4572 709.8047,187.1942 C715.7587,193.2322 723.7327,196.2942 733.5047,196.2942 C743.2767,196.2942 751.2507,193.2322 757.2037,187.1942 C767.1277,177.1302 767.2177,162.8642 767.1967,161.3792 L767.1967,80.6552 Z" id="iso-2" fill="#96CEB5"></path>
        <path d="M647.92093,157.778595 C647.92085,161.073586 647.914107,162.294454 647.9007,161.4412 C647.9007,161.5352 647.8517,170.8292 642.3027,176.3882 C639.3297,179.3672 635.2017,180.8162 629.6857,180.8162 C624.1697,180.8162 620.0427,179.3672 617.0677,176.3882 C611.5187,170.8292 611.4697,161.5352 611.4707,161.3792 C611.470572,162.008972 611.470476,161.005855 611.470412,158.369847 C611.470313,154.307281 595.993316,153.646087 595.993431,158.369847 C595.993491,160.834923 595.99358,161.80204 595.9937,161.2712 C595.9867,161.7972 595.9997,163.7252 596.3677,166.4122 C597.1137,171.8532 599.3427,180.4572 605.9867,187.1942 C611.9397,193.2322 619.9137,196.2942 629.6857,196.2942 C639.4577,196.2942 647.4317,193.2322 653.3847,187.1942 C660.0517,180.4332 662.2737,171.7912 663.0117,166.3862 C663.2287,165.6732 663.3797,164.9322 663.3797,164.1492 C663.393138,163.452856 663.399905,161.06979 663.4,157 C663.400068,154.116852 647.921019,154.116852 647.92093,157.778595 Z" id="iso-2" fill="#96CEB5"></path>
        <path d="M663.354366,156.904092 C663.384525,157.181919 663.4,157.464152 663.4,157.75 C663.4,157.952657 663.392221,158.153497 663.376947,158.352238 C663.378522,158.449195 663.380107,158.54588 663.3817,158.642292 C663.382286,158.677782 663.366939,158.712134 663.336677,158.745345 C662.848184,162.55545 659.59296,165.5 655.65,165.5 C651.665469,165.5 648.383252,162.493034 647.948797,158.624548 C647.91836,158.58757 647.902642,158.549339 647.902643,158.50985 C647.902647,158.325859 647.902652,158.140873 647.902656,157.954892 C647.900889,157.88681 647.9,157.818509 647.9,157.75 C647.9,157.681368 647.900892,157.612945 647.902665,157.544741 C647.903068,140.02352 647.903079,113.806006 647.9027,78.8922 C647.8817,77.4072 647.9717,63.1412 657.8957,53.0772 C663.8497,47.0402 671.8237,43.9782 681.5957,43.9782 C691.3677,43.9782 699.3417,47.0402 705.2967,53.0772 C712.173822,60.0527449 714.328001,69.0469865 714.995169,74.4408306 C715.290561,76.8289802 699.806533,78.128718 699.68918,76.9897232 C699.375831,73.9484396 698.250316,67.9268192 694.2147,63.8832 C691.2387,60.9052 687.1127,59.4562 681.5957,59.4562 C676.0427,59.4562 671.8947,60.9252 668.9177,63.9452 C663.4967,69.4422 663.3797,78.6922 663.3817,78.7832 C663.100824,113.298041 663.091712,139.338338 663.354366,156.904092 Z" id="Combined-Shape" fill="#C3ABB8"></path>
        <path d="M699.812272,157.310152 C699.811697,141.470977 699.81084,115.33166 699.8097,78.8922 C699.809798,78.876859 699.959774,78.8501741 700.230127,78.81604 C699.824646,77.875702 699.6,76.8390854 699.6,75.75 C699.6,71.4697932 703.069793,68 707.35,68 C711.630207,68 715.1,71.4697932 715.1,75.75 C715.1,76.7264645 714.919413,77.6607507 714.589814,78.5212825 C715.035802,78.638268 715.290534,78.7949892 715.2877,79.0002 C715.288458,115.438929 715.289028,141.552641 715.28941,157.341336 C715.296441,157.476668 715.3,157.612918 715.3,157.75 C715.3,162.030207 711.830207,165.5 707.55,165.5 C703.269793,165.5 699.8,162.030207 699.8,157.75 C699.8,157.602384 699.804127,157.455732 699.812272,157.310152 Z" id="Combined-Shape" fill="#FDD300"></path>
        <path d="M596.027822,158.411349 C596.005098,158.398181 595.993507,158.384354 595.9937,158.369847 L595.9917,78.8922 C595.9917,78.7362 611.4907,77.4072 611.4687,79.0002 L611.470667,157.071018 C611.490087,157.294759 611.5,157.521222 611.5,157.75 C611.5,162.030207 608.030207,165.5 603.75,165.5 C599.692563,165.5 596.363376,162.381989 596.027822,158.411349 Z" id="Combined-Shape" fill="#FDD300"></path>
        <path d="M596.00081,102.863191 C595.99547,102.825962 595.992717,102.788231 595.99262,102.75 C595.971316,94.3306239 595.97101,86.3780239 595.9917,78.8922 C595.9917,78.7362 595.9437,69.4412 590.3947,63.8832 C587.4217,60.9042 583.2937,59.4562 577.7777,59.4562 C572.2617,59.4562 568.1347,60.9052 565.1607,63.8832 C559.6097,69.4422 559.5617,78.7362 559.5617,78.8302 L544.0847,78.8922 C544.0627,77.4072 544.1537,63.1412 554.0777,53.0772 C560.0307,47.0402 568.0057,43.9782 577.7777,43.9782 C587.5497,43.9782 595.5227,47.0402 601.4767,53.0772 C611.3997,63.1412 611.4907,77.4072 611.4687,79.0002 C611.469911,91.6112949 611.470297,99.2984833 611.469859,102.061765 C611.489812,102.288515 611.5,102.518068 611.5,102.75 C611.5,107.030207 608.030207,110.5 603.75,110.5 C599.507587,110.5 596.061339,107.091213 596.00081,102.863191 Z" id="Combined-Shape" fill="#C3ABB8"></path>
        <path d="M559.560718,156.569853 C559.619509,156.954653 559.65,157.348766 559.65,157.75 C559.65,162.030207 556.180207,165.5 551.9,165.5 C547.708163,165.5 544.293621,162.172004 544.154414,158.01405 C544.106604,158.008498 544.0817,158.00377 544.0817,158 L544.0847,78.8922 C544.081405,78.6698046 544.115577,78.2171717 544.15,77.4785051 C544.152912,77.4160113 544.159229,77.3547592 544.168847,77.294735 C544.156352,77.1147791 544.15,76.9331313 544.15,76.75 C544.15,72.4697932 547.619793,69 551.9,69 C556.180207,69 559.65,72.4697932 559.65,76.75 C559.65,76.939184 559.643221,77.1267848 559.629894,77.3125727 C559.63751,77.3673028 559.639076,77.4226248 559.634344,77.4785051 C559.564207,78.3066788 559.5617,78.8087165 559.5617,78.8302 L559.560718,156.569853 Z" id="iso-2" fill="#96CEB5"></path>
        <path d="M215,167 L189.502165,229 L182.497835,229 L157,167 L164.580087,167 L186,220.5 L207.831169,167 L215,167 Z M266,222.331429 L266,229 L224,229 L224,167 L264.757576,167 L264.757576,173.668571 L231.129293,173.668571 L231.129293,193.722857 L260.113131,193.722857 L260.113131,200.302857 L231.129293,200.302857 L231.129293,222.331429 L266,222.331429 Z M329,167 L329,229 L322.994872,229 L285.071795,180.691429 L285.071795,229 L277,229 L277,167 L283.005128,167 L322.010256,217.308571 L322.010256,167 L329,167 Z M388.99842,207.565714 L388.99842,229 L381.00158,229 L381.00158,207.565714 L357,167 L365.489731,167 L385.205371,199.808571 L404.921011,167 L413,167 L388.99842,207.565714 Z" id="VENY" fill="#B0DBCA" fill-rule="nonzero"></path>
    </g>
</svg>