<?xml version="1.0" encoding="UTF-8"?>
<svg width="60px" height="60px" viewBox="0 0 60 60" version="1.1" xmlns="http://www.w3.org/2000/svg" xmlns:xlink="http://www.w3.org/1999/xlink">
    <!-- Generator: Sketch 53.2 (72643) - https://sketchapp.com -->
    <title>Artboard</title>
    <desc>Created with Sketch.</desc>
    <g id="Artboard" stroke="none" stroke-width="1" fill="none" fill-rule="evenodd">
        <path d="M59.9997462,26.7422726 C59.9997462,25.9565902 59.3638375,25.3198088 58.579642,25.3198088 C57.7950794,25.3198088 57.1591707,25.9565902 57.1591707,26.7422726 L57.1591707,41.5930303 C57.1593543,41.6103101 57.1505451,43.3188109 56.1319902,44.3407127 C55.5861916,44.8883374 54.8287904,45.1547047 53.8164753,45.1547047 C52.8039766,45.1547047 52.0465754,44.8883374 51.5007768,44.3407127 C50.4825889,43.3188109 50.4735962,41.6103101 50.4735962,41.5816329 L50.4732292,26.4380367 C50.4772667,26.1451981 50.4605661,23.5227028 48.6396468,21.6726542 C47.5467648,20.5628824 46.0833491,20 44.2899583,20 C42.4965675,20 41.0331517,20.5628824 39.9404533,21.6726542 C38.119167,23.5227028 38.1026498,26.1451981 38.1065038,26.4181833 L38.1061368,41.5930303 C38.1061368,41.6103101 38.0971441,43.3188109 37.0787727,44.3407127 C36.5331576,44.8883374 35.7755729,45.1547047 34.7632578,45.1547047 C33.7509426,45.1547047 32.9935415,44.8883374 32.4475593,44.3407127 C31.4291879,43.3188109 31.4201952,41.6103101 31.4203788,41.5816329 L31.4200117,26.4380367 C31.4240492,26.1451981 31.4073486,23.5227028 29.5862457,21.6726542 C28.4935473,20.5628824 27.0303151,20 25.2369243,20 C23.4435335,20 21.9799343,20.5628824 20.8874194,21.6726542 C19.066133,23.5227028 19.0494324,26.1451981 19.0534699,26.4181833 L19.0529193,41.5930303 C19.0529193,41.6103101 19.0441102,43.3189947 18.0257388,44.3407127 C17.4799401,44.8883374 16.722539,45.1547047 15.7102238,45.1547047 C14.6979087,45.1547047 13.940324,44.8883374 13.3945254,44.3407127 C12.3759704,43.3188109 12.3673448,41.6103101 12.3673448,41.5816329 L12.3669778,26.4380367 C12.3711988,26.1451981 12.3544982,23.5227028 10.5330283,21.6726542 C9.44051338,20.5628824 7.97728118,20 6.18389037,20 C4.39049955,20 2.92708384,20.5628824 1.83456894,21.6726542 C0.0132825664,23.5227028 -0.00360158782,26.1451981 0.000252403906,26.4181833 L0.000252403906,41.2573597 C0.000252403906,42.0430421 0.636344562,42.6801912 1.42072364,42.6801912 C2.20510272,42.6801912 2.84101135,42.0430421 2.84101135,41.2573597 L2.84082783,26.398146 C2.84064431,26.3816014 2.86230007,24.6810053 3.85699698,23.6705008 C4.40371324,23.1153392 5.16496836,22.8452953 6.18389037,22.8452953 C7.19620553,22.8452953 7.95342314,23.1114788 8.49922178,23.6591034 C9.51777673,24.6808215 9.52658586,26.389506 9.52658586,26.4181833 L9.52676938,42.0908375 C9.52676938,42.2366134 9.55503199,42.3743008 9.59559066,42.5066572 C9.73249913,43.5068673 10.1413893,45.0885265 11.3609024,46.327162 C12.4536008,47.4371176 13.9166495,48 15.7102238,48 C17.5034311,48 18.9668468,47.4371176 20.0595452,46.327162 C21.2832794,45.0841146 21.6908849,43.4954699 21.8263252,42.5018777 C21.8659662,42.3709919 21.8936783,42.2347751 21.8936783,42.0908375 L21.8938618,26.4067859 C21.8938618,26.389506 21.9026709,24.6810053 22.9214094,23.6591034 C23.467208,23.1116626 24.2246092,22.8452953 25.2369243,22.8452953 C26.2492395,22.8452953 27.0068241,23.1114788 27.5524393,23.6591034 C28.5708107,24.6808215 28.5796198,26.389506 28.5796198,26.4181833 L28.5799869,41.5617795 C28.5787022,41.6584732 28.581088,42.0128942 28.6486246,42.506841 C28.7855331,43.5070511 29.1946068,45.0887103 30.4139364,46.327162 C31.5064512,47.4371176 32.969867,48 34.7632578,48 C36.5566486,48 38.0200643,47.4371176 39.1125792,46.327162 C40.3361298,45.0842984 40.7439188,43.4956538 40.8793591,42.5020615 C40.9191837,42.3709919 40.9468957,42.2347751 40.9468957,42.0908375 L40.9472628,26.398146 C40.9468957,26.3814176 40.968368,24.6810053 41.9632484,23.6705008 C42.5095976,23.1153392 43.2708528,22.8452953 44.2899583,22.8452953 C45.302457,22.8452953 46.0596746,23.1116626 46.6058403,23.6591034 C47.6238446,24.6808215 47.6328373,26.389506 47.6326538,26.4181833 L47.6332043,41.5617795 C47.6317362,41.6584732 47.6343055,42.0132619 47.7020256,42.5072087 C47.8387506,43.5074188 48.2480078,45.0887103 49.4669703,46.327162 C50.5596687,47.4371176 52.0230844,48 53.8164753,48 C55.6098661,48 57.0732818,47.4371176 58.1657967,46.327162 C59.9870831,44.4771134 60.0036002,41.854618 59.9997462,41.5816329 L59.9997462,26.7422726 Z" id="iso" fill="#FFFFFF"></path>
    </g>
</svg>